<?xml version="1.0" encoding="UTF-8"?>
<svg width="34px" height="34px" viewBox="0 0 34 34" version="1.1" xmlns="http://www.w3.org/2000/svg" xmlns:xlink="http://www.w3.org/1999/xlink">
    <title>员工</title>
    <defs>
        <filter x="-0.8%" y="-24.0%" width="101.7%" height="148.0%" filterUnits="objectBoundingBox" id="filter-1">
            <feOffset dx="0" dy="2" in="SourceAlpha" result="shadowOffsetOuter1"></feOffset>
            <feGaussianBlur stdDeviation="2" in="shadowOffsetOuter1" result="shadowBlurOuter1"></feGaussianBlur>
            <feColorMatrix values="0 0 0 0 0.168627451   0 0 0 0 0.278431373   0 0 0 0 0.462745098  0 0 0 0.1 0" type="matrix" in="shadowBlurOuter1" result="shadowMatrixOuter1"></feColorMatrix>
            <feMerge>
                <feMergeNode in="shadowMatrixOuter1"></feMergeNode>
                <feMergeNode in="SourceGraphic"></feMergeNode>
            </feMerge>
        </filter>
    </defs>
    <g id="页面-1" stroke="none" stroke-width="1" fill="none" fill-rule="evenodd">
        <g id="数据模型配置界面-模型4" transform="translate(-1313.000000, -8.000000)" fill-rule="nonzero">
            <g id="导航" filter="url(#filter-1)">
                <g id="员工" transform="translate(1322.000000, 17.000000)">
                    <path d="M7.99141904,0.00674178 C3.64362101,0.00674178 0.107073928,3.48012473 0.005023028,7.80343054 L0.005023028,8.18757161 C0.107073928,12.5106626 3.64362101,15.9842604 7.99141904,15.9842604 C12.4032406,15.9842604 15.9799635,12.4075375 15.9799635,7.99571592 C15.9801783,3.58324985 12.4034554,0.00674178 7.99141904,0.00674178 Z" id="形状" fill="#0BA7BD"></path>
                    <path d="M7.89839161,3.20405015 L7.90483693,3.20405015 L7.90483693,3.204265 C7.91471975,3.20362047 7.92460258,3.20211656 7.9344854,3.20211656 C9.27339321,3.20211656 10.0607965,4.12680513 10.0607965,6.01549874 C10.0607965,6.04493237 10.0582183,6.07329177 10.0575738,6.10294025 C10.189488,6.19317473 10.2588826,6.43852657 10.2163435,6.71395658 C10.1710114,7.0070038 10.0143902,7.23130093 9.85024935,7.25622284 C9.70587418,7.65884049 9.49833488,7.97014945 9.22612753,8.27436855 L9.22612753,8.27372402 C9.22612753,8.27372402 8.98571709,8.52015009 9.05489686,8.95112715 C9.0980805,9.22354935 9.36749488,9.44376445 9.56944824,9.53335439 L11.4635129,10.3673788 C11.6500714,10.4497306 11.811235,10.5787136 11.9321295,10.7408178 L12.0150175,10.8683949 C12.1923819,11.1844713 12.2854545,11.5408588 12.2852914,11.9032985 L12.2852914,12.1226542 C12.2859358,12.3050569 12.1705645,12.4679086 11.9980448,12.5272056 C11.4834934,12.702948 10.1039801,13.0151163 7.90462206,12.9777334 L7.89817674,12.9777334 C5.69903356,13.0151163 4.31930539,12.702948 3.80539854,12.5272056 C3.63223428,12.4676938 3.51772243,12.3061311 3.51772243,12.1226543 L3.51772243,11.9037283 C3.51772243,11.6015144 3.58232483,11.3036272 3.70668071,11.0297111 L3.78842589,10.868395 C3.9130367,10.6459799 4.1066077,10.4701279 4.33993044,10.3673788 L6.23399514,9.53313955 C6.43573366,9.44397929 6.70493319,9.22376419 6.74854652,8.95155684 C6.81042159,8.56329076 6.62222469,8.32520709 6.58396656,8.28147301 L6.57731585,8.27436855 C6.3051085,7.97014945 6.09735436,7.65905534 5.95319403,7.25622284 C5.78883837,7.23130093 5.63243194,7.00721864 5.58667017,6.71395658 C5.54413106,6.43852657 5.61395536,6.19274504 5.74586957,6.10294025 C5.74479535,6.07286209 5.74264691,6.04471752 5.74264691,6.01549874 C5.74264691,4.12723482 6.53005017,3.20211656 7.86895798,3.20211656 C7.87905565,3.20211656 7.88872363,3.20362047 7.89839161,3.20405015 Z" id="形状结合" fill="#FFFFFF"></path>
                </g>
            </g>
        </g>
    </g>
</svg>